<svg xmlns="http://www.w3.org/2000/svg" width="180" height="39.091" viewBox="0 0 180 39.091">
  <g id="Group_3360" data-name="Group 3360" transform="translate(-6564.555 -5301.743)">
    <path id="Path_7351" data-name="Path 7351" d="M6603.7,5314.647a11.957,11.957,0,0,0-8.529-3.385,11.831,11.831,0,0,0-8.83,3.658l-.453.467-.452-.467a11.837,11.837,0,0,0-8.831-3.658,11.962,11.962,0,0,0-8.554,3.408,10.9,10.9,0,0,0-3.5,8.118v16.426a1.318,1.318,0,0,0,1.318,1.318h3a1.318,1.318,0,0,0,1.318-1.318v-15.65a6.871,6.871,0,0,1,1.9-4.869,6.138,6.138,0,0,1,9.054,0,6.867,6.867,0,0,1,1.9,4.869v15.65a1.319,1.319,0,0,0,1.319,1.318h3.045a1.318,1.318,0,0,0,1.318-1.318v-15.65a6.872,6.872,0,0,1,1.9-4.869,6.139,6.139,0,0,1,9.054,0,6.873,6.873,0,0,1,1.9,4.869v15.65a1.319,1.319,0,0,0,1.319,1.318h3a1.318,1.318,0,0,0,1.318-1.318v-16.426a10.9,10.9,0,0,0-3.5-8.118Z" fill="#fff"/>
    <rect id="Rectangle_4445" data-name="Rectangle 4445" width="4.94" height="38.79" rx="1.318" transform="translate(6643.77 5301.743)" fill="#fff"/>
    <path id="Path_7352" data-name="Path 7352" d="M6681.669,5303.061a1.318,1.318,0,0,0-1.318-1.318h-2.3a1.318,1.318,0,0,0-1.318,1.318V5314.9l-1.013-.773a14.314,14.314,0,0,0-18.862,1.467,14.934,14.934,0,0,0,0,20.9,14.338,14.338,0,0,0,20.554,0,14.377,14.377,0,0,0,4.264-10.447C6681.67,5325.9,6681.669,5303.061,6681.669,5303.061Zm-7.861,29.844,0,0a9.343,9.343,0,0,1-13.377,0,9.981,9.981,0,0,1-.007-13.716,9.341,9.341,0,0,1,13.384-.007,9.907,9.907,0,0,1,0,13.719Z" fill="#fff"/>
    <path id="Path_7353" data-name="Path 7353" d="M6738.847,5302.394h-1.014v-.651h2.756v.651h-1.019v3.021h-.723Z" fill="#fff"/>
    <path id="Path_7354" data-name="Path 7354" d="M6744.555,5301.743v3.671h-.72v-2.28h-.01l-.894,1.583h-.471l-.895-1.583h-.011v2.28h-.723v-3.671h.734l1.127,2.088h.011l1.122-2.088Z" fill="#fff"/>
    <path id="Path_7355" data-name="Path 7355" d="M6700.674,5302.856l-.052.024a13.707,13.707,0,0,0-6.336,6.175l-.047.1a15.585,15.585,0,0,0-1.4,6.043,16.572,16.572,0,0,0,.933,5.048l.022.061a15.366,15.366,0,0,0,2.149,3.682l.082.1a12.684,12.684,0,0,0,9.53,4.569h4.041a1.318,1.318,0,0,0,1.318-1.318v-2.187a1.318,1.318,0,0,0-1.318-1.319h-3.21a6.828,6.828,0,0,1-2.668-.3l-.14-.072-.294-.08a7.111,7.111,0,0,1-2.856-1.627,8.8,8.8,0,0,1-1.375-11.369,8.131,8.131,0,0,1,6.866-3.7h3.677a1.318,1.318,0,0,0,1.318-1.319v-2.3a1.318,1.318,0,0,0-1.318-1.318h-3.522a13.51,13.51,0,0,0-5.4,1.113" fill="#fff"/>
    <path id="Path_7356" data-name="Path 7356" d="M6733,5304.548a1.19,1.19,0,0,0,.24-.789c0-.033.01-.064.01-.1a2.029,2.029,0,0,0-2.124-1.919,2.272,2.272,0,0,0-1.1.287v-.006l-.018.014a2.056,2.056,0,0,0-.53.431l-.3.242a1.226,1.226,0,0,0-.381.259l-.238.244h0l-3.922,4.012a1.219,1.219,0,0,1-1.744,0l-4.161-4.256-.722-.566a2.1,2.1,0,0,0-.461-.361l-.025-.019,0,0a2.278,2.278,0,0,0-1.1-.286,2.029,2.029,0,0,0-2.124,1.919v0a1.2,1.2,0,0,0,.33,1.017,1.979,1.979,0,0,0,.414.429l7.851,8.117a1.218,1.218,0,0,0,1.753,0l7.813-8.077A1.964,1.964,0,0,0,6733,5304.548Z" fill="#fff"/>
    <path id="Path_7357" data-name="Path 7357" d="M6732.909,5325.665a2.058,2.058,0,0,0-.415-.437l-7.851-8.259a1.2,1.2,0,0,0-1.753,0l-7.812,8.218a2,2,0,0,0-.548.614,1.227,1.227,0,0,0-.239.8c0,.033-.011.065-.011.1a2.044,2.044,0,0,0,2.124,1.952,2.242,2.242,0,0,0,1.106-.292v.006l.017-.014a2.1,2.1,0,0,0,.531-.439l.3-.246a1.2,1.2,0,0,0,.38-.263l4.161-4.331a1.2,1.2,0,0,1,1.744,0l4.161,4.331.722.575a2.044,2.044,0,0,0,.461.368l.024.019,0-.005a2.25,2.25,0,0,0,1.1.291,2.044,2.044,0,0,0,2.125-1.952v0A1.235,1.235,0,0,0,6732.909,5325.665Z" fill="#fff"/>
    <path id="Path_7358" data-name="Path 7358" d="M6625.443,5311.26a13.939,13.939,0,0,0-10.275,4.338,14.934,14.934,0,0,0,0,20.9,13.932,13.932,0,0,0,10.277,4.34,14.576,14.576,0,0,0,6.7-1.677,1.317,1.317,0,0,0,.291-2.122l-1.844-1.755a1.345,1.345,0,0,0-1.454-.233,9.685,9.685,0,0,1-3.693.683,9.047,9.047,0,0,1-8.866-6.92l-.2-.786h22.335a1.318,1.318,0,0,0,1.319-1.336c-.024-2.358-.559-7.359-4.309-11.088A14.138,14.138,0,0,0,6625.443,5311.26Zm-9.159,12.236.312-.848a9.586,9.586,0,0,1,3.4-4.516,9.283,9.283,0,0,1,10.89,0,9.608,9.608,0,0,1,3.4,4.518l.313.848Z" fill="#fff"/>
  </g>
</svg>
