<?xml version="1.0" encoding="iso-8859-1"?>
<!-- Uploaded to: SVG Repo, www.svgrepo.com, Generator: SVG Repo Mixer Tools -->
<svg height="800px" width="800px" version="1.1" id="Layer_1" xmlns="http://www.w3.org/2000/svg" xmlns:xlink="http://www.w3.org/1999/xlink" 
	 viewBox="0 0 512.002 512.002" xml:space="preserve">
<g>
	<path style="fill:#50508A;" d="M416.135,264.354c-0.062-0.062-0.097-0.141-0.159-0.194l-1.077,0.671l-80.04-141.241H176.554
		L97.883,266.19l79.943,140.111l-0.009-0.23h157.634L416.135,264.354z"/>
	<g>
		<path style="fill:#AEAEAF;" d="M264.99,0.285c-2.993-0.106-5.967-0.282-8.986-0.282c-92.919,0-174.274,49.514-219.127,123.586
			H334.86L264.99,0.285z"/>
		<path style="fill:#AEAEAF;" d="M335.45,406.072h127.894c30.579-42.169,48.658-93.996,48.658-150.069
			c0-40.757-9.569-79.263-26.509-113.461L335.45,406.072z"/>
	</g>
	<g>
		<path style="fill:#E0E2E3;" d="M36.873,123.589C13.48,162.227,0,207.539,0,256.003c0,44.826,11.555,86.943,31.797,123.586h3.513
			l141.241-256H36.873z"/>
		<path style="fill:#E0E2E3;" d="M416.396,263.894l68.996-121.185C444.839,60.744,361.807,3.568,264.959,0.231l149.937,264.598
			L416.396,263.894z"/>
		<path style="fill:#E0E2E3;" d="M238.348,511.284c5.835,0.441,11.705,0.715,17.655,0.715c85.31,0,160.821-41.763,207.342-105.931
			h-4.308h-281.22l0.009,0.23l55.296,96.918l4.599,8.068H238.348z"/>
	</g>
	<path style="fill:#AEAEAF;" d="M97.879,266.186l-62.57,113.399h-3.443c40.819,73.878,117.063,125.422,205.859,131.699
		L97.879,266.186z"/>
	<path style="fill:#FFFFFF;" d="M326.622,256.003c0,39-31.62,70.621-70.621,70.621s-70.621-31.62-70.621-70.621
		s31.62-70.621,70.621-70.621S326.622,217.002,326.622,256.003"/>
</g>
</svg>